<mxfile host="65bd71144e" modified="2020-10-09T07:44:40.317Z" agent="5.0 (Macintosh; Intel Mac OS X 10_15_7) AppleWebKit/537.36 (KHTML, like Gecko) Code/1.49.3 Chrome/83.0.4103.122 Electron/9.2.1 Safari/537.36" etag="9pubzNGhvjQIqt-FT7m2" version="13.6.5">
    <diagram id="NOc1ReNXyjb1_cZ8pPM2" name="Page-1">
        <mxGraphModel dx="1524" dy="709" grid="1" gridSize="10" guides="1" tooltips="1" connect="1" arrows="1" fold="1" page="1" pageScale="1" pageWidth="1169" pageHeight="827" background="none" math="0" shadow="0">
            <root>
                <mxCell id="0"/>
                <mxCell id="1" parent="0"/>
                <mxCell id="88" value="" style="whiteSpace=wrap;html=1;shadow=0;dashed=1;dashPattern=1 1;labelBackgroundColor=none;fontSize=35;fontColor=#ffffff;fillColor=none;strokeColor=#6F0000;" parent="1" vertex="1">
                    <mxGeometry x="80" y="130" width="740" height="600" as="geometry"/>
                </mxCell>
                <mxCell id="3" value="" style="whiteSpace=wrap;html=1;fillColor=none;dashed=1;dashPattern=1 1;strokeColor=#00CC00;" parent="1" vertex="1">
                    <mxGeometry x="154" y="170" width="520" height="520" as="geometry"/>
                </mxCell>
                <mxCell id="4" value="" style="whiteSpace=wrap;html=1;dashed=1;fillColor=none;" parent="1" vertex="1">
                    <mxGeometry x="187.5" y="210" width="120" height="430" as="geometry"/>
                </mxCell>
                <mxCell id="42" value="" style="group;" parent="1" vertex="1" connectable="0">
                    <mxGeometry x="202.5" y="285" width="90" height="270" as="geometry"/>
                </mxCell>
                <mxCell id="43" value="" style="whiteSpace=wrap;html=1;dashed=1;dashPattern=1 1;fillColor=none;" parent="42" vertex="1">
                    <mxGeometry width="90" height="270" as="geometry"/>
                </mxCell>
                <mxCell id="44" value="ASFrontend" style="text;html=1;strokeColor=none;fillColor=none;align=center;verticalAlign=middle;whiteSpace=wrap;" parent="42" vertex="1">
                    <mxGeometry x="5" width="80" height="30" as="geometry"/>
                </mxCell>
                <mxCell id="41" value="" style="group;" parent="1" vertex="1" connectable="0">
                    <mxGeometry x="360" y="224" width="90" height="176" as="geometry"/>
                </mxCell>
                <mxCell id="39" value="" style="whiteSpace=wrap;html=1;dashed=1;dashPattern=1 1;fillColor=none;" parent="41" vertex="1">
                    <mxGeometry y="6" width="90" height="170" as="geometry"/>
                </mxCell>
                <mxCell id="40" value="ASBackend" style="text;html=1;strokeColor=none;fillColor=none;align=center;verticalAlign=middle;whiteSpace=wrap;" parent="41" vertex="1">
                    <mxGeometry x="5" width="80" height="30" as="geometry"/>
                </mxCell>
                <mxCell id="17" value="" style="edgeStyle=orthogonalEdgeStyle;orthogonalLoop=1;jettySize=auto;html=1;entryX=0.05;entryY=0.5;entryDx=0;entryDy=0;entryPerimeter=0;" parent="1" source="2" target="15" edge="1">
                    <mxGeometry relative="1" as="geometry">
                        <mxPoint x="130" y="425" as="targetPoint"/>
                    </mxGeometry>
                </mxCell>
                <mxCell id="2" value="Actor" style="shape=umlActor;verticalLabelPosition=bottom;verticalAlign=top;html=1;outlineConnect=0;" parent="1" vertex="1">
                    <mxGeometry x="10" y="395" width="30" height="60" as="geometry"/>
                </mxCell>
                <mxCell id="5" value="" style="whiteSpace=wrap;html=1;dashed=1;fillColor=none;" parent="1" vertex="1">
                    <mxGeometry x="340" y="560" width="300" height="80" as="geometry"/>
                </mxCell>
                <mxCell id="6" value="" style="whiteSpace=wrap;html=1;dashed=1;fillColor=none;" parent="1" vertex="1">
                    <mxGeometry x="340" y="210" width="300" height="320" as="geometry"/>
                </mxCell>
                <mxCell id="8" value="&lt;span&gt;VMFL1001&lt;/span&gt;" style="verticalLabelPosition=bottom;html=1;verticalAlign=top;align=center;strokeColor=none;fillColor=#00BEF2;shape=mxgraph.azure.virtual_machine_feature;pointerEvents=1;" parent="1" vertex="1">
                    <mxGeometry x="223" y="327.5" width="50" height="45" as="geometry"/>
                </mxCell>
                <mxCell id="9" value="VMFL2001" style="verticalLabelPosition=bottom;html=1;verticalAlign=top;align=center;shape=mxgraph.azure.virtual_machine_feature;pointerEvents=1;fillColor=none;dashed=1;perimeterSpacing=0;" parent="1" vertex="1">
                    <mxGeometry x="222.5" y="407.5" width="50" height="45" as="geometry"/>
                </mxCell>
                <mxCell id="10" value="VMFL3001" style="verticalLabelPosition=bottom;html=1;verticalAlign=top;align=center;shape=mxgraph.azure.virtual_machine_feature;pointerEvents=1;dashed=1;fillColor=none;" parent="1" vertex="1">
                    <mxGeometry x="222.5" y="477.5" width="50" height="45" as="geometry"/>
                </mxCell>
                <mxCell id="11" value="&lt;span&gt;VMBL1001&lt;/span&gt;" style="verticalLabelPosition=bottom;html=1;verticalAlign=top;align=center;strokeColor=none;fillColor=#00BEF2;shape=mxgraph.azure.virtual_machine_feature;pointerEvents=1;" parent="1" vertex="1">
                    <mxGeometry x="380" y="260" width="50" height="45" as="geometry"/>
                </mxCell>
                <mxCell id="14" value="" style="verticalLabelPosition=bottom;html=1;verticalAlign=top;align=center;strokeColor=none;fillColor=#00BEF2;shape=mxgraph.azure.virtual_network;pointerEvents=1;" parent="1" vertex="1">
                    <mxGeometry x="154" y="170" width="50" height="27.500000000000004" as="geometry"/>
                </mxCell>
                <mxCell id="15" value="" style="verticalLabelPosition=bottom;html=1;verticalAlign=top;align=center;strokeColor=none;fillColor=#00BEF2;shape=mxgraph.azure.azure_load_balancer;rotation=0;" parent="1" vertex="1">
                    <mxGeometry x="154" y="407.5" width="50" height="35" as="geometry"/>
                </mxCell>
                <mxCell id="19" value="Azure SQL DB" style="verticalLabelPosition=bottom;html=1;verticalAlign=top;align=center;strokeColor=none;fillColor=#00BEF2;shape=mxgraph.azure.sql_database_sql_azure;" parent="1" vertex="1">
                    <mxGeometry x="720" y="365" width="76" height="80" as="geometry"/>
                </mxCell>
                <mxCell id="20" value="" style="verticalLabelPosition=bottom;html=1;verticalAlign=top;align=center;strokeColor=none;fillColor=#00BEF2;shape=mxgraph.azure.service_endpoint;" parent="1" vertex="1">
                    <mxGeometry x="580" y="395" width="50" height="20" as="geometry"/>
                </mxCell>
                <mxCell id="21" value="" style="shape=link;html=1;width=9;" parent="1" edge="1">
                    <mxGeometry width="100" relative="1" as="geometry">
                        <mxPoint x="620" y="404.5" as="sourcePoint"/>
                        <mxPoint x="720" y="404.5" as="targetPoint"/>
                    </mxGeometry>
                </mxCell>
                <mxCell id="22" value="443" style="shape=link;html=1;width=19.166666666666664;strokeColor=#FFFFFF;" parent="1" edge="1">
                    <mxGeometry x="0.3333" width="100" relative="1" as="geometry">
                        <mxPoint x="310" y="394" as="sourcePoint"/>
                        <mxPoint x="340" y="394" as="targetPoint"/>
                        <mxPoint as="offset"/>
                    </mxGeometry>
                </mxCell>
                <mxCell id="25" value="1433" style="endArrow=classic;html=1;exitX=0.5;exitY=0;exitDx=0;exitDy=0;exitPerimeter=0;entryX=0.18;entryY=0.97;entryDx=0;entryDy=0;entryPerimeter=0;" parent="1" source="13" target="20" edge="1">
                    <mxGeometry width="50" height="50" relative="1" as="geometry">
                        <mxPoint x="300" y="480" as="sourcePoint"/>
                        <mxPoint x="350" y="430" as="targetPoint"/>
                    </mxGeometry>
                </mxCell>
                <mxCell id="28" value="" style="endArrow=classicThin;html=1;entryX=0;entryY=0.5;entryDx=0;entryDy=0;entryPerimeter=0;exitX=1;exitY=0.5;exitDx=0;exitDy=0;exitPerimeter=0;endFill=1;" parent="1" source="11" target="20" edge="1">
                    <mxGeometry width="50" height="50" relative="1" as="geometry">
                        <mxPoint x="300" y="480" as="sourcePoint"/>
                        <mxPoint x="350" y="430" as="targetPoint"/>
                    </mxGeometry>
                </mxCell>
                <mxCell id="29" value="1433" style="edgeLabel;html=1;align=center;verticalAlign=middle;resizable=0;points=[];" parent="28" vertex="1" connectable="0">
                    <mxGeometry x="-0.1074" y="3" relative="1" as="geometry">
                        <mxPoint y="1" as="offset"/>
                    </mxGeometry>
                </mxCell>
                <mxCell id="31" value="" style="shape=link;html=1;startArrow=classicThin;startFill=1;endArrow=none;endFill=0;width=18;fillColor=#0050ef;strokeColor=#FFFFFF;" parent="1" edge="1">
                    <mxGeometry width="100" relative="1" as="geometry">
                        <mxPoint x="310" y="600" as="sourcePoint"/>
                        <mxPoint x="340" y="600" as="targetPoint"/>
                    </mxGeometry>
                </mxCell>
                <mxCell id="32" value="22/3389" style="edgeLabel;html=1;align=center;verticalAlign=middle;resizable=0;points=[];" parent="31" vertex="1" connectable="0">
                    <mxGeometry x="-0.2288" y="-7" relative="1" as="geometry">
                        <mxPoint x="8" y="-7" as="offset"/>
                    </mxGeometry>
                </mxCell>
                <mxCell id="33" value="" style="shape=link;html=1;startArrow=classicThin;startFill=1;endArrow=none;endFill=0;width=18;fillColor=#0050ef;strokeColor=#FFFFFF;" parent="1" source="5" target="6" edge="1">
                    <mxGeometry width="100" relative="1" as="geometry">
                        <mxPoint x="370" y="540" as="sourcePoint"/>
                        <mxPoint x="470" y="540" as="targetPoint"/>
                    </mxGeometry>
                </mxCell>
                <mxCell id="34" value="22/3389" style="edgeLabel;html=1;align=center;verticalAlign=middle;resizable=0;points=[];" parent="33" vertex="1" connectable="0">
                    <mxGeometry x="-0.2288" y="-7" relative="1" as="geometry">
                        <mxPoint x="8" y="-6.5" as="offset"/>
                    </mxGeometry>
                </mxCell>
                <mxCell id="35" value="Frontend Subnet" style="text;html=1;strokeColor=none;fillColor=none;align=center;verticalAlign=middle;whiteSpace=wrap;" parent="1" vertex="1">
                    <mxGeometry x="222.5" y="210" width="50" height="30" as="geometry"/>
                </mxCell>
                <mxCell id="36" value="Backend Subnet" style="text;html=1;strokeColor=none;fillColor=none;align=center;verticalAlign=middle;whiteSpace=wrap;" parent="1" vertex="1">
                    <mxGeometry x="465" y="210" width="50" height="30" as="geometry"/>
                </mxCell>
                <mxCell id="38" value="Management Subnet" style="text;html=1;strokeColor=none;fillColor=none;align=center;verticalAlign=middle;whiteSpace=wrap;" parent="1" vertex="1">
                    <mxGeometry x="560" y="610" width="80" height="30" as="geometry"/>
                </mxCell>
                <mxCell id="75" value="Diagnostic Storage" style="verticalLabelPosition=bottom;html=1;verticalAlign=top;align=center;strokeColor=none;fillColor=#00BEF2;shape=mxgraph.azure.storage;pointerEvents=1;dashed=1;dashPattern=1 4;" parent="1" vertex="1">
                    <mxGeometry x="720" y="490" width="75" height="60" as="geometry"/>
                </mxCell>
                <mxCell id="13" value="Jump Host" style="verticalLabelPosition=bottom;html=1;verticalAlign=top;align=center;strokeColor=none;fillColor=#00BEF2;shape=mxgraph.azure.virtual_machine_feature;pointerEvents=1;shadow=0;" parent="1" vertex="1">
                    <mxGeometry x="500" y="565" width="50" height="45" as="geometry"/>
                </mxCell>
                <mxCell id="86" value="" style="group;" parent="1" vertex="1" connectable="0">
                    <mxGeometry x="743" y="110" width="30" height="90" as="geometry"/>
                </mxCell>
                <mxCell id="87" value="" style="group;" parent="86" vertex="1" connectable="0">
                    <mxGeometry x="187" y="-10" width="30" height="90" as="geometry"/>
                </mxCell>
                <mxCell id="82" value="Actor" style="shape=umlActor;verticalLabelPosition=bottom;verticalAlign=top;html=1;outlineConnect=0;" parent="87" vertex="1">
                    <mxGeometry width="30" height="60" as="geometry"/>
                </mxCell>
                <mxCell id="83" value="" style="endArrow=classic;html=1;entryX=0.35;entryY=0;entryDx=0;entryDy=0;entryPerimeter=0;" parent="87" target="19" edge="1">
                    <mxGeometry width="50" height="50" relative="1" as="geometry">
                        <mxPoint x="15" y="90" as="sourcePoint"/>
                        <mxPoint x="37" y="90" as="targetPoint"/>
                    </mxGeometry>
                </mxCell>
                <mxCell id="84" value="X" style="edgeLabel;html=1;align=center;verticalAlign=middle;resizable=0;points=[];fontSize=35;labelBackgroundColor=none;fontColor=#CC0000;" parent="83" vertex="1" connectable="0">
                    <mxGeometry x="-0.1383" y="1" relative="1" as="geometry">
                        <mxPoint as="offset"/>
                    </mxGeometry>
                </mxCell>
                <mxCell id="89" value="&lt;font style=&quot;font-size: 25px&quot; color=&quot;#ffffff&quot;&gt;RG001&lt;/font&gt;" style="text;html=1;strokeColor=#001DBC;fillColor=#0050ef;align=center;verticalAlign=middle;whiteSpace=wrap;shadow=0;dashed=1;dashPattern=1 1;labelBackgroundColor=none;fontSize=35;fontColor=#ffffff;gradientDirection=north;" parent="1" vertex="1">
                    <mxGeometry x="80" y="130" width="100" height="30" as="geometry"/>
                </mxCell>
                <mxCell id="91" value="Wersja: 0.1&lt;br&gt;Autor: Emil Wasilewski&lt;br&gt;Autor URL:&amp;nbsp;&lt;a href=&quot;https://github.com/eklime&quot;&gt;https://github.com/eklime&lt;/a&gt;" style="text;html=1;strokeColor=none;fillColor=none;align=left;verticalAlign=top;whiteSpace=wrap;rounded=0;" parent="1" vertex="1">
                    <mxGeometry width="230" height="70" as="geometry"/>
                </mxCell>
                <mxCell id="76" value="Compute" parent="0"/>
            </root>
        </mxGraphModel>
    </diagram>
</mxfile>